<svg width="512" height="512" viewBox="0 0 512 512" fill="none" xmlns="http://www.w3.org/2000/svg">
    <path fill-rule="evenodd" clip-rule="evenodd"
        d="M173.447 33L219.488 59.5819L106.154 255.882L219.488 452.183L173.447 478.765L45 256.288L45.7026 255.882L45 255.477L173.447 33ZM221.415 154.797C234.774 122.547 254.354 93.2431 279.038 68.5595L316.63 106.152C296.883 125.899 281.219 149.342 270.532 175.142C259.845 200.943 254.345 228.596 254.345 256.522C254.345 284.448 259.845 312.101 270.532 337.901C281.219 363.702 296.883 387.145 316.63 406.892L279.038 444.484C254.354 419.801 234.774 390.497 221.415 358.246C208.057 325.996 201.181 291.43 201.181 256.522C201.181 221.614 208.057 187.048 221.415 154.797ZM319.649 195.487C327.664 176.137 339.412 158.555 354.223 143.744L391.668 181.19C381.775 191.082 373.928 202.827 368.574 215.752C363.22 228.678 360.464 242.531 360.464 256.522C360.464 270.512 363.22 284.366 368.574 297.291C373.928 310.217 381.775 321.961 391.668 331.854L354.223 369.299C339.412 354.489 327.664 336.907 319.649 317.557C311.634 298.206 307.509 277.467 307.509 256.522C307.509 235.577 311.634 214.838 319.649 195.487ZM429.408 218.929C424.471 223.866 420.555 229.727 417.883 236.177C415.211 242.627 413.836 249.54 413.836 256.522C413.836 263.503 415.211 270.417 417.883 276.867C420.555 283.317 424.471 289.178 429.408 294.114L467 256.522L429.408 218.929Z"
        fill="#4338CA" />
</svg>
    